<?xml version="1.0" encoding="utf-8"?>
<!-- Generator: Adobe Illustrator 27.9.5, SVG Export Plug-In . SVG Version: 9.03 Build 54986)  -->
<svg version="1.1" id="Layer_1" xmlns="http://www.w3.org/2000/svg" xmlns:xlink="http://www.w3.org/1999/xlink" x="0px" y="0px"
	 viewBox="0 0 512 512" style="enable-background:new 0 0 512 512;" xml:space="preserve">
<path d="M458.8,224.6h-4.3v-31.8c0-72.9-88.4-132.1-197-132.1s-197,59.4-197,132.1v31.8h-7.4c-12.9,0-23.3,10.4-23.3,23.3v16.3
	c0,12.9,10.4,23.3,23.3,23.3h7.4v31.8c0,72.7,88.4,131.9,197,131.9s197-59.2,197-131.9v-31.8h4.3c12.9,0,23.3-10.4,23.3-23.3v-16.3
	C482.1,235.1,471.7,224.6,458.8,224.6L458.8,224.6z M257.5,84c89.7,0,163.8,42.8,173,97.6H84.5C93.7,126.8,167.8,84,257.5,84z
	 M83.6,204.4h347.9v20.2H83.6V204.4z M257.5,428c-89.7,0-163.8-42.8-173-97.4h191.6l27.6,46c2.1,3.5,5.8,5.5,9.8,5.5
	c4,0,7.8-2.1,9.8-5.5l27.6-46h79.3c-9.2,54.6-83.3,97.4-173,97.4H257.5z M431.5,307.6h-86.8c-4,0-7.8,2.1-9.8,5.5l-21.2,35.1
	l-21.2-35.1c-2.1-3.5-5.8-5.5-9.8-5.5H83.6v-20.2h347.9V307.6L431.5,307.6z M458.8,264.4l-405.9-0.3l0.3-16.6h18.7l0,0H443l0,0h15.6
	l0.3,0.3l-0.3,16.6H458.8z"/>
</svg>
